<?xml version="1.0" standalone="no"?>
<!DOCTYPE svg PUBLIC "-//W3C//DTD SVG 20010904//EN"
 "http://www.w3.org/TR/2001/REC-SVG-20010904/DTD/svg10.dtd">
<svg version="1.0" xmlns="http://www.w3.org/2000/svg"
 width="494.000000pt" height="404.000000pt" viewBox="0 0 494.000000 404.000000"
 preserveAspectRatio="xMidYMid meet">
<metadata>
Created by potrace 1.16, written by Peter Selinger 2001-2019
</metadata>
<g transform="translate(0.000000,404.000000) scale(0.100000,-0.100000)"
fill="#000000" stroke="none">
<path d="M0 2020 l0 -2020 2470 0 2470 0 0 2020 0 2020 -2470 0 -2470 0 0
-2020z m1109 1435 c38 -8 85 -21 103 -30 l33 -15 -30 5 c-16 2 -61 11 -100 19
-38 8 -105 18 -147 21 l-78 7 -1 -278 c0 -154 -4 -288 -9 -299 -5 -12 -9 107
-9 289 l-1 309 84 -7 c47 -3 116 -13 155 -21z m2210 -376 c1 -260 -11 -595
-20 -544 -10 52 -11 505 -2 666 10 170 20 111 22 -122z m-1025 -1107 c-4 -191
-10 -328 -15 -320 -11 16 -12 655 -2 753 l8 70 7 -85 c4 -47 5 -235 2 -418z
m-264 -512 c0 -244 -2 -310 -12 -311 -85 -8 -292 26 -344 55 l-29 17 30 -6
c17 -4 59 -13 95 -21 36 -8 104 -17 153 -21 l87 -6 0 302 c0 182 4 301 9 301
6 0 10 -122 11 -310z"/>
</g>
</svg>
