<?xml version="1.0" standalone="no"?>
<!DOCTYPE svg PUBLIC "-//W3C//DTD SVG 20010904//EN"
 "http://www.w3.org/TR/2001/REC-SVG-20010904/DTD/svg10.dtd">
<svg version="1.0" xmlns="http://www.w3.org/2000/svg"
 width="494.000000pt" height="404.000000pt" viewBox="0 0 494.000000 404.000000"
 preserveAspectRatio="xMidYMid meet">
<metadata>
Created by potrace 1.16, written by Peter Selinger 2001-2019
</metadata>
<g transform="translate(0.000000,404.000000) scale(0.100000,-0.100000)"
fill="#000000" stroke="none">
<path d="M0 2020 l0 -2020 2470 0 2470 0 0 2020 0 2020 -2470 0 -2470 0 0
-2020z m1305 1142 c51 -12 63 -18 42 -20 -15 -2 -25 -8 -22 -13 4 -5 -1 -9 -9
-9 -9 0 -17 -9 -17 -20 -1 -11 -2 -24 -3 -28 -2 -14 -53 -71 -59 -66 -2 3 -7
-7 -11 -21 -4 -14 -11 -25 -16 -25 -6 0 -10 -6 -10 -13 0 -7 -16 -20 -35 -27
-22 -9 -34 -19 -31 -27 3 -7 1 -13 -4 -13 -6 0 -10 62 -10 156 l0 156 58 -7
c31 -3 89 -14 127 -23z"/>
</g>
</svg>
