<?xml version="1.0" standalone="no"?>
<!DOCTYPE svg PUBLIC "-//W3C//DTD SVG 20010904//EN"
 "http://www.w3.org/TR/2001/REC-SVG-20010904/DTD/svg10.dtd">
<svg version="1.0" xmlns="http://www.w3.org/2000/svg"
 width="494.000000pt" height="404.000000pt" viewBox="0 0 494.000000 404.000000"
 preserveAspectRatio="xMidYMid meet">
<metadata>
Created by potrace 1.16, written by Peter Selinger 2001-2019
</metadata>
<g transform="translate(0.000000,404.000000) scale(0.100000,-0.100000)"
fill="#000000" stroke="none">
<path d="M0 2020 l0 -2020 2470 0 2470 0 0 2020 0 2020 -2470 0 -2470 0 0
-2020z m1262 1179 c32 -7 55 -15 53 -19 -3 -5 1 -11 7 -13 8 -4 4 -8 -10 -13
-13 -4 -21 -12 -18 -19 2 -7 -6 -23 -19 -35 -14 -13 -22 -27 -19 -31 3 -5 2
-9 -3 -9 -4 0 -19 -18 -32 -40 -13 -21 -38 -45 -55 -51 -40 -17 -43 -22 -51
-91 -4 -33 -9 -57 -11 -55 -3 2 -7 93 -10 202 l-6 198 59 -7 c32 -3 84 -11
115 -17z"/>
</g>
</svg>
