<?xml version="1.0" standalone="no"?>
<!DOCTYPE svg PUBLIC "-//W3C//DTD SVG 20010904//EN"
 "http://www.w3.org/TR/2001/REC-SVG-20010904/DTD/svg10.dtd">
<svg version="1.0" xmlns="http://www.w3.org/2000/svg"
 width="494.000000pt" height="404.000000pt" viewBox="0 0 494.000000 404.000000"
 preserveAspectRatio="xMidYMid meet">
<metadata>
Created by potrace 1.16, written by Peter Selinger 2001-2019
</metadata>
<g transform="translate(0.000000,404.000000) scale(0.100000,-0.100000)"
fill="#000000" stroke="none">
<path d="M0 2020 l0 -2020 2470 0 2470 0 0 2020 0 2020 -2470 0 -2470 0 0
-2020z m1198 1244 c28 -4 52 -10 52 -15 0 -5 7 -6 15 -3 11 5 15 -1 15 -20 0
-16 -6 -26 -15 -26 -8 0 -15 -8 -15 -19 0 -10 -6 -24 -14 -30 -8 -7 -34 -39
-58 -72 -24 -32 -49 -59 -55 -59 -7 0 -13 -4 -13 -10 0 -5 -16 -10 -35 -10
l-35 0 0 141 0 141 53 -5 c28 -4 76 -9 105 -13z m1775 -1090 c11 -11 -34 -109
-66 -141 -17 -18 -27 -33 -23 -33 5 0 -12 -20 -38 -44 -25 -25 -46 -52 -46
-60 0 -9 -3 -16 -7 -16 -5 0 -44 -34 -87 -75 -47 -44 -73 -75 -63 -75 31 0 6
-28 -44 -50 -48 -20 -253 -60 -311 -60 l-28 0 0 148 c0 139 6 175 26 173 18
-2 79 22 106 40 14 11 35 19 46 19 10 0 31 9 45 20 14 11 33 20 43 20 9 0 46
14 81 30 34 17 68 30 74 30 7 0 27 9 45 21 19 11 34 18 34 15 0 -4 16 1 36 9
20 8 47 15 60 15 12 0 26 5 29 10 7 11 78 14 88 4z m-944 -663 l1 -244 -82 6
c-199 15 -437 112 -537 220 -28 31 -23 42 27 58 20 6 60 25 88 40 28 16 55 29
61 29 12 0 173 73 255 116 26 13 53 24 60 25 7 0 36 11 63 24 l50 24 6 -27 c4
-15 7 -137 8 -271z"/>
</g>
</svg>
