<?xml version="1.0" standalone="no"?>
<!DOCTYPE svg PUBLIC "-//W3C//DTD SVG 20010904//EN"
 "http://www.w3.org/TR/2001/REC-SVG-20010904/DTD/svg10.dtd">
<svg version="1.0" xmlns="http://www.w3.org/2000/svg"
 width="494.000000pt" height="404.000000pt" viewBox="0 0 494.000000 404.000000"
 preserveAspectRatio="xMidYMid meet">
<metadata>
Created by potrace 1.16, written by Peter Selinger 2001-2019
</metadata>
<g transform="translate(0.000000,404.000000) scale(0.100000,-0.100000)"
fill="#000000" stroke="none">
<path d="M0 2020 l0 -2020 2470 0 2470 0 0 2020 0 2020 -2470 0 -2470 0 0
-2020z m1186 1215 c49 -9 97 -18 106 -21 20 -6 13 -34 -9 -34 -9 0 -12 -6 -9
-17 4 -12 -7 -31 -29 -54 -19 -20 -31 -40 -27 -44 4 -4 -3 -5 -14 -1 -16 5
-23 2 -27 -13 -3 -15 -1 -18 12 -14 13 4 13 2 -2 -7 -9 -6 -15 -15 -13 -19 3
-4 -12 -13 -32 -21 -53 -19 -61 -31 -65 -101 -2 -35 -4 32 -5 149 -2 174 0
212 12 212 7 0 53 -7 102 -15z"/>
</g>
</svg>
