<?xml version="1.0" standalone="no"?>
<!DOCTYPE svg PUBLIC "-//W3C//DTD SVG 20010904//EN"
 "http://www.w3.org/TR/2001/REC-SVG-20010904/DTD/svg10.dtd">
<svg version="1.0" xmlns="http://www.w3.org/2000/svg"
 width="494.000000pt" height="404.000000pt" viewBox="0 0 494.000000 404.000000"
 preserveAspectRatio="xMidYMid meet">
<metadata>
Created by potrace 1.16, written by Peter Selinger 2001-2019
</metadata>
<g transform="translate(0.000000,404.000000) scale(0.100000,-0.100000)"
fill="#000000" stroke="none">
<path d="M0 2020 l0 -2020 2470 0 2470 0 0 2020 0 2020 -2470 0 -2470 0 0
-2020z m1263 1144 c61 -11 87 -20 87 -30 0 -8 -7 -17 -16 -21 -8 -3 -13 -12
-10 -19 3 -8 -6 -25 -19 -38 -13 -13 -21 -27 -17 -31 4 -5 -3 -6 -15 -3 -18 5
-22 0 -28 -28 -3 -21 -12 -34 -21 -34 -8 0 -12 -4 -9 -10 3 -5 1 -10 -4 -10
-6 0 -11 -6 -11 -14 0 -17 -24 -28 -45 -20 -11 5 -15 -7 -18 -58 -2 -34 -4 26
-5 135 l-2 197 23 0 c12 0 61 -7 110 -16z"/>
</g>
</svg>
