<?xml version="1.0" standalone="no"?>
<!DOCTYPE svg PUBLIC "-//W3C//DTD SVG 20010904//EN"
 "http://www.w3.org/TR/2001/REC-SVG-20010904/DTD/svg10.dtd">
<svg version="1.0" xmlns="http://www.w3.org/2000/svg"
 width="494.000000pt" height="404.000000pt" viewBox="0 0 494.000000 404.000000"
 preserveAspectRatio="xMidYMid meet">
<metadata>
Created by potrace 1.16, written by Peter Selinger 2001-2019
</metadata>
<g transform="translate(0.000000,404.000000) scale(0.100000,-0.100000)"
fill="#000000" stroke="none">
<path d="M0 2020 l0 -2020 2470 0 2470 0 0 2020 0 2020 -2470 0 -2470 0 0
-2020z m1270 1158 c44 -8 56 -14 57 -29 1 -11 -5 -19 -13 -19 -8 0 -14 -6 -12
-14 2 -8 -12 -30 -29 -50 -18 -19 -33 -42 -33 -51 0 -8 -4 -15 -9 -15 -5 0
-13 -9 -16 -20 -4 -11 -10 -18 -15 -15 -4 3 -13 -2 -20 -10 -7 -8 -17 -15 -22
-15 -18 0 -38 -29 -31 -46 4 -12 3 -15 -5 -10 -8 5 -12 55 -12 163 l0 155 53
-7 c28 -3 77 -11 107 -17z"/>
</g>
</svg>
