<?xml version="1.0" standalone="no"?>
<!DOCTYPE svg PUBLIC "-//W3C//DTD SVG 20010904//EN"
 "http://www.w3.org/TR/2001/REC-SVG-20010904/DTD/svg10.dtd">
<svg version="1.0" xmlns="http://www.w3.org/2000/svg"
 width="494.000000pt" height="404.000000pt" viewBox="0 0 494.000000 404.000000"
 preserveAspectRatio="xMidYMid meet">
<metadata>
Created by potrace 1.16, written by Peter Selinger 2001-2019
</metadata>
<g transform="translate(0.000000,404.000000) scale(0.100000,-0.100000)"
fill="#000000" stroke="none">
<path d="M0 2020 l0 -2020 2470 0 2470 0 0 2020 0 2020 -2470 0 -2470 0 0
-2020z m1129 1301 c20 -5 63 -15 96 -23 56 -12 58 -13 25 -17 l-35 -4 29 -6
c44 -9 42 -27 -4 -35 -22 -3 -40 -12 -40 -19 0 -7 -9 -18 -20 -25 -11 -7 -20
-21 -20 -31 0 -11 -5 -23 -11 -27 -6 -3 -9 -15 -6 -25 3 -11 1 -16 -5 -13 -5
3 -12 -3 -15 -14 -3 -15 -16 -21 -54 -26 -47 -6 -53 -12 -50 -47 1 -8 -3 -26
-8 -40 -7 -17 -10 34 -10 169 l-1 192 46 0 c26 0 63 -4 83 -9z m792 -571 c63
-121 108 -278 116 -396 6 -110 -4 -200 -17 -154 -5 14 -8 51 -9 83 -1 31 -5
57 -9 57 -5 0 -40 -30 -78 -66 -38 -36 -85 -73 -105 -81 -21 -8 -82 -60 -147
-126 -61 -62 -117 -117 -124 -123 -7 -6 -81 -81 -165 -166 -150 -155 -152
-156 -172 -137 -59 56 -132 194 -187 359 -38 113 -39 117 -38 260 1 206 2 211
75 240 32 12 59 27 59 32 0 5 4 7 9 4 5 -3 39 10 76 29 36 19 73 35 81 35 8 0
14 5 14 10 0 6 7 10 15 10 16 0 137 47 220 85 28 13 86 38 130 55 43 17 84 35
90 40 15 12 84 29 109 27 13 -1 31 -26 57 -77z"/>
</g>
</svg>
