<?xml version="1.0" standalone="no"?>
<!DOCTYPE svg PUBLIC "-//W3C//DTD SVG 20010904//EN"
 "http://www.w3.org/TR/2001/REC-SVG-20010904/DTD/svg10.dtd">
<svg version="1.0" xmlns="http://www.w3.org/2000/svg"
 width="494.000000pt" height="404.000000pt" viewBox="0 0 494.000000 404.000000"
 preserveAspectRatio="xMidYMid meet">
<metadata>
Created by potrace 1.16, written by Peter Selinger 2001-2019
</metadata>
<g transform="translate(0.000000,404.000000) scale(0.100000,-0.100000)"
fill="#000000" stroke="none">
<path d="M0 2020 l0 -2020 2470 0 2470 0 0 2020 0 2020 -2470 0 -2470 0 0
-2020z m1264 1145 c77 -15 107 -25 73 -25 -10 0 -14 -5 -11 -15 4 -8 1 -15 -5
-15 -6 0 -11 -9 -11 -20 0 -11 -4 -20 -8 -20 -5 0 -15 -11 -22 -25 -7 -13 -16
-22 -20 -20 -4 3 -10 -9 -14 -25 -3 -20 -14 -34 -30 -40 -14 -5 -30 -18 -36
-30 -6 -11 -17 -20 -25 -20 -9 0 -16 -10 -16 -22 -3 -65 -18 73 -18 175 l-1
117 33 0 c17 0 68 -7 111 -15z"/>
</g>
</svg>
