<?xml version="1.0" standalone="no"?>
<!DOCTYPE svg PUBLIC "-//W3C//DTD SVG 20010904//EN"
 "http://www.w3.org/TR/2001/REC-SVG-20010904/DTD/svg10.dtd">
<svg version="1.0" xmlns="http://www.w3.org/2000/svg"
 width="494.000000pt" height="404.000000pt" viewBox="0 0 494.000000 404.000000"
 preserveAspectRatio="xMidYMid meet">
<metadata>
Created by potrace 1.16, written by Peter Selinger 2001-2019
</metadata>
<g transform="translate(0.000000,404.000000) scale(0.100000,-0.100000)"
fill="#000000" stroke="none">
<path d="M0 2020 l0 -2020 2470 0 2470 0 0 2020 0 2020 -2470 0 -2470 0 0
-2020z m1273 1169 c45 -9 57 -15 57 -30 0 -11 -7 -19 -16 -19 -9 0 -14 -6 -11
-13 3 -7 -10 -31 -29 -52 -19 -22 -34 -46 -34 -53 0 -7 -7 -15 -15 -18 -8 -4
-13 -9 -10 -14 2 -4 -13 -13 -33 -19 -31 -11 -40 -20 -50 -52 -7 -21 -13 -49
-13 -61 -1 -13 -5 -6 -10 17 -4 22 -8 107 -8 189 l-1 149 58 -7 c31 -3 83 -11
115 -17z"/>
</g>
</svg>
