<?xml version="1.0" standalone="no"?>
<!DOCTYPE svg PUBLIC "-//W3C//DTD SVG 20010904//EN"
 "http://www.w3.org/TR/2001/REC-SVG-20010904/DTD/svg10.dtd">
<svg version="1.0" xmlns="http://www.w3.org/2000/svg"
 width="494.000000pt" height="404.000000pt" viewBox="0 0 494.000000 404.000000"
 preserveAspectRatio="xMidYMid meet">
<metadata>
Created by potrace 1.16, written by Peter Selinger 2001-2019
</metadata>
<g transform="translate(0.000000,404.000000) scale(0.100000,-0.100000)"
fill="#000000" stroke="none">
<path d="M0 2020 l0 -2020 2470 0 2470 0 0 2020 0 2020 -2470 0 -2470 0 0
-2020z m1263 1156 c37 -7 71 -16 75 -20 4 -4 -3 -16 -16 -26 -13 -11 -23 -21
-22 -24 1 -19 -2 -26 -24 -49 -13 -14 -27 -23 -30 -20 -3 4 -6 -4 -6 -16 0
-18 -4 -21 -20 -16 -16 5 -20 2 -20 -15 0 -23 -21 -50 -39 -50 -6 0 -15 -18
-21 -41 -6 -23 -13 -39 -14 -38 -2 2 -6 77 -9 167 l-5 162 41 0 c23 -1 72 -7
110 -14z"/>
</g>
</svg>
