<?xml version="1.0" standalone="no"?>
<!DOCTYPE svg PUBLIC "-//W3C//DTD SVG 20010904//EN"
 "http://www.w3.org/TR/2001/REC-SVG-20010904/DTD/svg10.dtd">
<svg version="1.0" xmlns="http://www.w3.org/2000/svg"
 width="494.000000pt" height="404.000000pt" viewBox="0 0 494.000000 404.000000"
 preserveAspectRatio="xMidYMid meet">
<metadata>
Created by potrace 1.16, written by Peter Selinger 2001-2019
</metadata>
<g transform="translate(0.000000,404.000000) scale(0.100000,-0.100000)"
fill="#000000" stroke="none">
<path d="M0 2020 l0 -2020 2470 0 2470 0 0 2020 0 2020 -2470 0 -2470 0 0
-2020z m1280 1139 c65 -11 83 -25 56 -44 -10 -8 -15 -18 -12 -23 3 -5 -5 -18
-17 -29 -36 -33 -65 -69 -72 -94 -9 -31 -25 -50 -35 -44 -4 3 -11 -2 -14 -11
-4 -10 -14 -14 -26 -11 -16 4 -20 -1 -23 -32 -2 -20 -4 42 -5 137 l-2 173 48
-6 c26 -4 72 -11 102 -16z"/>
</g>
</svg>
