<?xml version="1.0" standalone="no"?>
<!DOCTYPE svg PUBLIC "-//W3C//DTD SVG 20010904//EN"
 "http://www.w3.org/TR/2001/REC-SVG-20010904/DTD/svg10.dtd">
<svg version="1.0" xmlns="http://www.w3.org/2000/svg"
 width="494.000000pt" height="404.000000pt" viewBox="0 0 494.000000 404.000000"
 preserveAspectRatio="xMidYMid meet">
<metadata>
Created by potrace 1.16, written by Peter Selinger 2001-2019
</metadata>
<g transform="translate(0.000000,404.000000) scale(0.100000,-0.100000)"
fill="#000000" stroke="none">
<path d="M0 2020 l0 -2020 2470 0 2470 0 0 2020 0 2020 -2470 0 -2470 0 0
-2020z m1180 1420 c201 -51 456 -209 543 -335 l21 -30 -25 22 c-13 12 -44 40
-69 62 -106 97 -277 197 -420 245 -41 13 -127 34 -190 45 l-115 20 85 -4 c47
-2 123 -13 170 -25z m1232 -586 c-70 -140 -114 -309 -113 -434 1 -41 -2 -120
-6 -175 -6 -89 -8 -95 -14 -55 -26 161 2 406 65 562 25 61 87 170 94 164 2 -2
-10 -30 -26 -62z m895 -294 c-4 -153 -7 -186 -31 -263 -28 -94 -80 -206 -115
-247 -13 -16 -5 10 25 74 72 159 94 260 104 476 5 102 10 187 11 190 7 19 10
-81 6 -230z m-1992 -1147 c65 -52 120 -86 214 -133 103 -51 185 -76 319 -99
63 -11 116 -22 119 -25 11 -11 -63 -6 -153 9 -225 40 -434 147 -591 303 -86
86 -100 122 -15 41 31 -31 80 -74 107 -96z"/>
</g>
</svg>
