<?xml version="1.0" standalone="no"?>
<!DOCTYPE svg PUBLIC "-//W3C//DTD SVG 20010904//EN"
 "http://www.w3.org/TR/2001/REC-SVG-20010904/DTD/svg10.dtd">
<svg version="1.0" xmlns="http://www.w3.org/2000/svg"
 width="494.000000pt" height="404.000000pt" viewBox="0 0 494.000000 404.000000"
 preserveAspectRatio="xMidYMid meet">
<metadata>
Created by potrace 1.16, written by Peter Selinger 2001-2019
</metadata>
<g transform="translate(0.000000,404.000000) scale(0.100000,-0.100000)"
fill="#000000" stroke="none">
<path d="M0 2020 l0 -2020 2470 0 2470 0 0 2020 0 2020 -2470 0 -2470 0 0
-2020z m1027 1449 c127 -17 231 -48 348 -104 105 -50 248 -145 259 -173 7 -16
-2 -11 -69 39 -173 127 -373 202 -607 225 l-68 6 -1 -33 c0 -19 -4 -43 -9 -54
-6 -14 -9 -2 -9 43 l-1 62 39 0 c22 0 75 -5 118 -11z m2280 -991 c-8 -104 -45
-249 -79 -310 -32 -56 -33 -39 -4 41 45 125 66 255 66 408 0 76 3 176 8 223 7
80 7 74 12 -90 3 -96 2 -219 -3 -272z m-952 247 c-42 -125 -55 -213 -56 -393
-1 -92 -4 -198 -8 -237 l-7 -70 -8 59 c-5 33 -6 145 -3 250 6 185 18 272 50
361 49 132 74 156 32 30z m-1010 -1336 c182 -131 429 -219 611 -219 l54 0 1
53 c0 38 3 47 9 32 14 -34 11 -93 -5 -102 -22 -13 -184 4 -279 28 -180 46
-396 163 -481 260 -26 29 -10 20 90 -52z"/>
</g>
</svg>
