<?xml version="1.0" standalone="no"?>
<!DOCTYPE svg PUBLIC "-//W3C//DTD SVG 20010904//EN"
 "http://www.w3.org/TR/2001/REC-SVG-20010904/DTD/svg10.dtd">
<svg version="1.0" xmlns="http://www.w3.org/2000/svg"
 width="494.000000pt" height="404.000000pt" viewBox="0 0 494.000000 404.000000"
 preserveAspectRatio="xMidYMid meet">
<metadata>
Created by potrace 1.16, written by Peter Selinger 2001-2019
</metadata>
<g transform="translate(0.000000,404.000000) scale(0.100000,-0.100000)"
fill="#000000" stroke="none">
<path d="M0 2020 l0 -2020 2470 0 2470 0 0 2020 0 2020 -2470 0 -2470 0 0
-2020z m1189 1270 c57 -11 106 -22 109 -25 3 -3 -12 -6 -34 -7 -37 -1 -37 -1
-6 -5 22 -3 32 -10 32 -21 0 -12 -3 -13 -8 -5 -10 16 -28 4 -36 -25 -4 -12
-12 -20 -17 -17 -5 4 -9 -1 -9 -9 0 -9 -9 -16 -20 -16 -15 0 -22 -9 -26 -30
-4 -16 -13 -30 -20 -30 -8 0 -14 -8 -14 -19 0 -15 -10 -20 -50 -25 -50 -7 -54
-11 -50 -53 1 -13 -3 -23 -9 -23 -5 0 -12 -8 -14 -17 -3 -10 -5 64 -6 165 l-1
182 38 0 c20 0 84 -9 141 -20z m1474 -544 c21 -16 23 -69 2 -86 -8 -6 -17 -22
-21 -33 -4 -12 -32 -49 -63 -82 -114 -121 -217 -230 -263 -276 l-46 -48 -7 67
c-8 82 8 220 35 297 23 68 36 85 61 85 10 0 33 9 51 20 18 11 57 27 88 35 30
9 66 20 80 25 37 12 63 11 83 -4z m-649 -270 c23 -49 30 -180 17 -350 -11
-163 -15 -173 -84 -234 -23 -20 -74 -71 -114 -112 -40 -41 -77 -79 -83 -85
-60 -54 -250 -249 -250 -256 0 -18 -46 -8 -85 17 -160 106 -318 336 -365 534
-12 47 -26 94 -33 105 -7 13 -12 72 -13 160 l-2 140 8 -120 c4 -66 8 -132 9
-147 1 -26 4 -28 41 -28 22 0 40 4 40 10 0 12 206 112 330 160 30 11 92 39
137 61 84 40 213 96 247 106 11 4 54 23 95 43 42 21 79 36 82 34 4 -2 14 -19
23 -38z"/>
</g>
</svg>
