<?xml version="1.0" standalone="no"?>
<!DOCTYPE svg PUBLIC "-//W3C//DTD SVG 20010904//EN"
 "http://www.w3.org/TR/2001/REC-SVG-20010904/DTD/svg10.dtd">
<svg version="1.0" xmlns="http://www.w3.org/2000/svg"
 width="494.000000pt" height="404.000000pt" viewBox="0 0 494.000000 404.000000"
 preserveAspectRatio="xMidYMid meet">
<metadata>
Created by potrace 1.16, written by Peter Selinger 2001-2019
</metadata>
<g transform="translate(0.000000,404.000000) scale(0.100000,-0.100000)"
fill="#000000" stroke="none">
<path d="M0 2020 l0 -2020 2470 0 2470 0 0 2020 0 2020 -2470 0 -2470 0 0
-2020z m1280 1179 c30 -7 50 -14 43 -16 -7 -2 -9 -11 -6 -19 3 -9 -1 -14 -12
-14 -9 0 -13 -5 -10 -10 8 -14 -48 -77 -63 -72 -7 2 -10 -2 -6 -12 5 -12 2
-15 -11 -9 -15 5 -17 2 -12 -16 3 -13 3 -20 0 -17 -3 3 -16 -8 -28 -24 -12
-16 -25 -27 -28 -23 -4 3 -7 -1 -7 -11 0 -9 -6 -19 -14 -22 -8 -3 -12 -12 -9
-20 3 -8 1 -14 -5 -14 -18 0 -22 31 -22 177 l0 146 68 -6 c37 -3 92 -11 122
-18z"/>
</g>
</svg>
