<?xml version="1.0" standalone="no"?>
<!DOCTYPE svg PUBLIC "-//W3C//DTD SVG 20010904//EN"
 "http://www.w3.org/TR/2001/REC-SVG-20010904/DTD/svg10.dtd">
<svg version="1.0" xmlns="http://www.w3.org/2000/svg"
 width="494.000000pt" height="404.000000pt" viewBox="0 0 494.000000 404.000000"
 preserveAspectRatio="xMidYMid meet">
<metadata>
Created by potrace 1.16, written by Peter Selinger 2001-2019
</metadata>
<g transform="translate(0.000000,404.000000) scale(0.100000,-0.100000)"
fill="#000000" stroke="none">
<path d="M0 2020 l0 -2020 2470 0 2470 0 0 2020 0 2020 -2470 0 -2470 0 0
-2020z m1233 1155 c54 -8 102 -17 107 -20 13 -8 0 -35 -17 -35 -8 0 -13 -6
-10 -13 5 -13 -67 -110 -76 -101 -2 3 -7 -7 -11 -21 -4 -14 -11 -25 -16 -25
-6 0 -10 -6 -10 -12 0 -7 -15 -20 -33 -29 -20 -10 -31 -23 -29 -33 2 -9 -2
-16 -8 -16 -6 0 -10 56 -10 160 0 88 3 160 8 160 4 0 51 -7 105 -15z"/>
</g>
</svg>
