<?xml version="1.0" standalone="no"?>
<!DOCTYPE svg PUBLIC "-//W3C//DTD SVG 20010904//EN"
 "http://www.w3.org/TR/2001/REC-SVG-20010904/DTD/svg10.dtd">
<svg version="1.0" xmlns="http://www.w3.org/2000/svg"
 width="494.000000pt" height="404.000000pt" viewBox="0 0 494.000000 404.000000"
 preserveAspectRatio="xMidYMid meet">
<metadata>
Created by potrace 1.16, written by Peter Selinger 2001-2019
</metadata>
<g transform="translate(0.000000,404.000000) scale(0.100000,-0.100000)"
fill="#000000" stroke="none">
<path d="M0 2020 l0 -2020 2470 0 2470 0 0 2020 0 2020 -2470 0 -2470 0 0
-2020z m889 998 c0 -249 -4 -462 -9 -473 -5 -12 -9 176 -9 453 -1 296 3 472 9
472 6 0 9 -169 9 -452z m2415 386 c14 -5 16 -31 16 -183 0 -98 -3 -234 -7
-302 -7 -110 -8 -118 -14 -69 -4 30 -7 162 -8 292 -1 130 -5 239 -9 242 -4 3
-43 1 -85 -3 -42 -4 -77 -4 -77 0 0 18 149 36 184 23z m-989 -1830 c14 -3 56
-3 93 0 54 5 63 4 48 -5 -11 -7 -56 -13 -100 -13 l-81 -1 -3 255 c-2 140 1
280 5 310 5 37 9 -44 11 -242 l2 -298 25 -6z m-294 -397 c-6 -21 -10 135 -10
440 -1 259 2 480 7 490 10 27 14 -892 3 -930z"/>
</g>
</svg>
