<?xml version="1.0" standalone="no"?>
<!DOCTYPE svg PUBLIC "-//W3C//DTD SVG 20010904//EN"
 "http://www.w3.org/TR/2001/REC-SVG-20010904/DTD/svg10.dtd">
<svg version="1.0" xmlns="http://www.w3.org/2000/svg"
 width="494.000000pt" height="404.000000pt" viewBox="0 0 494.000000 404.000000"
 preserveAspectRatio="xMidYMid meet">
<metadata>
Created by potrace 1.16, written by Peter Selinger 2001-2019
</metadata>
<g transform="translate(0.000000,404.000000) scale(0.100000,-0.100000)"
fill="#000000" stroke="none">
<path d="M0 2020 l0 -2020 2470 0 2470 0 0 2020 0 2020 -2470 0 -2470 0 0
-2020z m1453 1304 c173 -87 349 -270 442 -459 61 -125 66 -159 7 -50 -26 50
-68 120 -92 155 -62 92 -221 248 -313 306 -96 60 -114 73 -104 74 4 0 31 -12
60 -26z m-359 -1674 c96 -134 213 -244 348 -327 33 -21 56 -39 50 -41 -17 -5
-150 79 -226 144 -119 101 -238 262 -292 394 -40 98 -27 91 29 -15 29 -56 70
-125 91 -155z"/>
</g>
</svg>
