<?xml version="1.0" standalone="no"?>
<!DOCTYPE svg PUBLIC "-//W3C//DTD SVG 20010904//EN"
 "http://www.w3.org/TR/2001/REC-SVG-20010904/DTD/svg10.dtd">
<svg version="1.0" xmlns="http://www.w3.org/2000/svg"
 width="494.000000pt" height="404.000000pt" viewBox="0 0 494.000000 404.000000"
 preserveAspectRatio="xMidYMid meet">
<metadata>
Created by potrace 1.16, written by Peter Selinger 2001-2019
</metadata>
<g transform="translate(0.000000,404.000000) scale(0.100000,-0.100000)"
fill="#000000" stroke="none">
<path d="M0 2020 l0 -2020 2470 0 2470 0 0 2020 0 2020 -2470 0 -2470 0 0
-2020z m1280 1139 c65 -11 83 -25 57 -44 -10 -7 -16 -17 -15 -23 2 -5 -5 -18
-14 -29 -49 -53 -56 -62 -50 -67 3 -3 1 -6 -5 -6 -6 0 -14 -11 -17 -25 -4 -14
-12 -25 -19 -25 -7 0 -18 -9 -25 -21 -9 -14 -20 -18 -35 -15 -12 3 -16 3 -9 0
6 -3 9 -11 5 -17 -4 -7 -10 -32 -14 -57 -3 -25 -7 44 -8 153 l-1 198 48 -6
c26 -4 72 -11 102 -16z"/>
</g>
</svg>
