<?xml version="1.0" standalone="no"?>
<!DOCTYPE svg PUBLIC "-//W3C//DTD SVG 20010904//EN"
 "http://www.w3.org/TR/2001/REC-SVG-20010904/DTD/svg10.dtd">
<svg version="1.0" xmlns="http://www.w3.org/2000/svg"
 width="494.000000pt" height="404.000000pt" viewBox="0 0 494.000000 404.000000"
 preserveAspectRatio="xMidYMid meet">
<metadata>
Created by potrace 1.16, written by Peter Selinger 2001-2019
</metadata>
<g transform="translate(0.000000,404.000000) scale(0.100000,-0.100000)"
fill="#000000" stroke="none">
<path d="M0 2020 l0 -2020 2470 0 2470 0 0 2020 0 2020 -2470 0 -2470 0 0
-2020z m1290 1160 c35 -8 46 -16 46 -31 0 -10 -6 -19 -13 -19 -7 0 -13 -6 -13
-12 0 -7 -15 -29 -33 -48 -17 -19 -38 -47 -46 -62 -8 -15 -18 -25 -23 -22 -4
3 -8 0 -8 -7 0 -6 -8 -19 -18 -28 -10 -9 -22 -25 -26 -36 -5 -13 -10 -15 -13
-7 -12 31 -22 6 -26 -60 -1 -40 -4 16 -5 124 -1 108 -5 204 -9 214 -6 16 0 17
68 11 41 -3 94 -10 119 -17z"/>
</g>
</svg>
