<?xml version="1.0" standalone="no"?>
<!DOCTYPE svg PUBLIC "-//W3C//DTD SVG 20010904//EN"
 "http://www.w3.org/TR/2001/REC-SVG-20010904/DTD/svg10.dtd">
<svg version="1.0" xmlns="http://www.w3.org/2000/svg"
 width="494.000000pt" height="404.000000pt" viewBox="0 0 494.000000 404.000000"
 preserveAspectRatio="xMidYMid meet">
<metadata>
Created by potrace 1.16, written by Peter Selinger 2001-2019
</metadata>
<g transform="translate(0.000000,404.000000) scale(0.100000,-0.100000)"
fill="#000000" stroke="none">
<path d="M0 2020 l0 -2020 2470 0 2470 0 0 2020 0 2020 -2470 0 -2470 0 0
-2020z m1254 1146 c89 -15 119 -25 75 -27 -22 0 -22 -1 -4 -9 18 -7 19 -8 3
-15 -10 -4 -15 -12 -11 -18 3 -5 0 -15 -8 -21 -15 -11 -49 -62 -49 -71 0 -3
-8 -14 -17 -24 -31 -33 -39 -46 -39 -55 1 -5 -8 -14 -19 -20 -34 -19 -45 -34
-47 -63 -1 -15 -5 49 -8 142 -3 94 -3 176 -1 183 4 15 16 15 125 -2z"/>
</g>
</svg>
