<?xml version="1.0" standalone="no"?>
<!DOCTYPE svg PUBLIC "-//W3C//DTD SVG 20010904//EN"
 "http://www.w3.org/TR/2001/REC-SVG-20010904/DTD/svg10.dtd">
<svg version="1.0" xmlns="http://www.w3.org/2000/svg"
 width="494.000000pt" height="404.000000pt" viewBox="0 0 494.000000 404.000000"
 preserveAspectRatio="xMidYMid meet">
<metadata>
Created by potrace 1.16, written by Peter Selinger 2001-2019
</metadata>
<g transform="translate(0.000000,404.000000) scale(0.100000,-0.100000)"
fill="#000000" stroke="none">
<path d="M0 2020 l0 -2020 2470 0 2470 0 0 2020 0 2020 -2470 0 -2470 0 0
-2020z m1256 1145 c88 -17 109 -29 80 -50 -10 -8 -15 -18 -12 -23 3 -5 -6 -19
-19 -30 -14 -12 -25 -27 -25 -33 0 -6 -6 -9 -14 -6 -10 4 -16 -5 -20 -29 -4
-21 -13 -34 -22 -34 -8 0 -12 -4 -9 -10 3 -5 1 -10 -4 -10 -6 0 -11 -6 -11
-14 0 -17 -24 -28 -45 -20 -11 5 -15 -7 -18 -58 -2 -34 -4 26 -5 135 l-2 197
24 0 c13 0 59 -7 102 -15z"/>
</g>
</svg>
