<?xml version="1.0" standalone="no"?>
<!DOCTYPE svg PUBLIC "-//W3C//DTD SVG 20010904//EN"
 "http://www.w3.org/TR/2001/REC-SVG-20010904/DTD/svg10.dtd">
<svg version="1.0" xmlns="http://www.w3.org/2000/svg"
 width="494.000000pt" height="404.000000pt" viewBox="0 0 494.000000 404.000000"
 preserveAspectRatio="xMidYMid meet">
<metadata>
Created by potrace 1.16, written by Peter Selinger 2001-2019
</metadata>
<g transform="translate(0.000000,404.000000) scale(0.100000,-0.100000)"
fill="#000000" stroke="none">
<path d="M0 2020 l0 -2020 2470 0 2470 0 0 2020 0 2020 -2470 0 -2470 0 0
-2020z m1280 1139 c65 -11 83 -25 56 -44 -10 -8 -15 -18 -12 -23 3 -5 -5 -18
-17 -29 -33 -29 -62 -66 -71 -88 -6 -16 -9 -17 -16 -5 -9 13 -10 12 -10 -5 0
-3 -7 -19 -15 -36 -12 -23 -21 -29 -36 -24 -11 4 -19 2 -19 -5 0 -6 5 -8 13
-4 9 6 9 5 1 -7 -7 -8 -14 -23 -17 -34 -2 -11 -5 58 -6 153 l-1 173 48 -6 c26
-4 72 -11 102 -16z"/>
</g>
</svg>
