<?xml version="1.0" standalone="no"?>
<!DOCTYPE svg PUBLIC "-//W3C//DTD SVG 20010904//EN"
 "http://www.w3.org/TR/2001/REC-SVG-20010904/DTD/svg10.dtd">
<svg version="1.0" xmlns="http://www.w3.org/2000/svg"
 width="494.000000pt" height="404.000000pt" viewBox="0 0 494.000000 404.000000"
 preserveAspectRatio="xMidYMid meet">
<metadata>
Created by potrace 1.16, written by Peter Selinger 2001-2019
</metadata>
<g transform="translate(0.000000,404.000000) scale(0.100000,-0.100000)"
fill="#000000" stroke="none">
<path d="M0 2020 l0 -2020 2470 0 2470 0 0 2020 0 2020 -2470 0 -2470 0 0
-2020z m1247 1198 c52 -11 76 -34 48 -44 -8 -4 -15 -14 -15 -23 0 -10 -11 -28
-25 -41 -14 -13 -23 -25 -21 -28 6 -6 -9 -24 -76 -94 -45 -45 -60 -68 -65
-101 -6 -29 -10 18 -13 148 -3 105 -3 194 -1 199 4 9 87 1 168 -16z"/>
</g>
</svg>
