<?xml version="1.0" standalone="no"?>
<!DOCTYPE svg PUBLIC "-//W3C//DTD SVG 20010904//EN"
 "http://www.w3.org/TR/2001/REC-SVG-20010904/DTD/svg10.dtd">
<svg version="1.0" xmlns="http://www.w3.org/2000/svg"
 width="494.000000pt" height="404.000000pt" viewBox="0 0 494.000000 404.000000"
 preserveAspectRatio="xMidYMid meet">
<metadata>
Created by potrace 1.16, written by Peter Selinger 2001-2019
</metadata>
<g transform="translate(0.000000,404.000000) scale(0.100000,-0.100000)"
fill="#000000" stroke="none">
<path d="M0 2020 l0 -2020 2470 0 2470 0 0 2020 0 2020 -2470 0 -2470 0 0
-2020z m1159 1424 c86 -22 241 -85 241 -98 0 -3 -24 4 -52 16 -133 53 -330 98
-432 98 l-26 0 -1 -192 c0 -106 -4 -202 -9 -213 -5 -12 -9 70 -9 204 l-1 224
97 -7 c53 -4 139 -18 192 -32z m2156 -675 c-4 -197 -11 -334 -19 -364 -10 -41
-11 -12 -9 201 2 137 6 323 10 414 5 139 8 157 15 115 5 -27 6 -192 3 -366z
m-1016 -529 c-10 -487 -10 -479 -19 -450 -12 37 -11 613 0 695 10 68 20 110
24 103 1 -2 -1 -158 -5 -348z m-269 -876 c0 -161 -3 -213 -12 -216 -25 -9
-196 12 -291 36 -87 22 -234 82 -225 92 2 2 53 -14 113 -35 115 -40 264 -71
347 -71 l48 0 0 218 c0 144 4 212 10 202 5 -8 10 -107 10 -226z"/>
</g>
</svg>
