<?xml version="1.0" standalone="no"?>
<!DOCTYPE svg PUBLIC "-//W3C//DTD SVG 20010904//EN"
 "http://www.w3.org/TR/2001/REC-SVG-20010904/DTD/svg10.dtd">
<svg version="1.0" xmlns="http://www.w3.org/2000/svg"
 width="494.000000pt" height="404.000000pt" viewBox="0 0 494.000000 404.000000"
 preserveAspectRatio="xMidYMid meet">
<metadata>
Created by potrace 1.16, written by Peter Selinger 2001-2019
</metadata>
<g transform="translate(0.000000,404.000000) scale(0.100000,-0.100000)"
fill="#000000" stroke="none">
<path d="M0 2020 l0 -2020 2470 0 2470 0 0 2020 0 2020 -2470 0 -2470 0 0
-2020z m3304 1384 c14 -5 16 -28 15 -163 -1 -86 -5 -183 -9 -216 -6 -51 -7
-40 -10 75 -1 74 -5 169 -9 210 l-6 75 -60 -3 c-33 -2 -100 -12 -149 -23 -97
-21 -118 -20 -59 4 33 13 65 20 168 41 33 6 102 6 119 0z m-2416 -599 c0 -231
-3 -429 -8 -440 -5 -12 -8 177 -8 445 0 256 4 454 8 440 4 -14 8 -214 8 -445z
m1132 -1443 c-6 -11 -9 138 -10 444 0 253 3 464 8 468 11 12 14 -892 2 -912z
m295 214 c25 -6 138 7 210 25 77 19 73 3 -5 -21 -51 -16 -101 -24 -160 -24
l-85 -1 -3 180 c-2 99 1 200 5 225 5 31 9 -22 11 -166 l2 -212 25 -6z"/>
</g>
</svg>
